<svg xmlns="http://www.w3.org/2000/svg" version="1.1" xmlns:xlink="http://www.w3.org/1999/xlink" viewBox="0 0 11.333481540154885 4.112496057283998"><g transform="matrix(0.7616211769853843,0,0,0.7616211769853843,3.8433602979557717,1.5433251729988882)"><g transform="matrix(1,0,0,1,0,0)" clip-path="url(#SvgjsClipPath145804)"><g clip-path="url(#bed33a598-7084-4c5d-8ce5-c31a8462709dfa26f5c7-96ee-4c52-97d4-046a517465e8)"><path d=" M -0.5341025222667897 0.12224469544414496 C -0.5240255326409193 0.09262588014193696 -0.5203526111884993 0.07515595887465687 -0.5203526111884993 0.07515595887465687 C -0.56720590407514 -0.005883756761431935 -0.6742856910341557 -0.06460341126358349 -0.7261303899971618 -0.08941917543570377 C -0.7187845470923218 -0.12647801111589074 -0.7151587143764713 -0.1483271848841332 -0.7151587143764713 -0.1483271848841332 C -0.7779280002235986 -0.21533445702251464 -0.8679145758078903 -0.25762014246191495 -0.9120838107100702 -0.27574930604116776 C -0.9037961930738403 -0.29416100203983764 -0.8954614867010411 -0.31106585846828383 -0.8870796915916721 -0.326040076697381 C -0.8870796915916721 -0.326040076697381 -1.0480289931861821 -0.46000753223757446 -1.1725316126759087 -0.5110517226788994 C -1.1659862782927497 -0.5430249748095819 -1.1621250018940514 -0.5609657834425568 -1.1621250018940514 -0.5609657834425568 C -1.270146563584457 -0.6361194070074596 -1.5204702871878555 -0.6765686317206498 -1.6073019174219916 -0.6886704370190082 L -1.609091289411632 -0.7385374090460961 C -1.609091289411632 -0.7385374090460961 -1.9356987662576008 -0.7500270607690512 -2.13629678404362 -0.6755797682526906 C -2.13629678404362 -0.6755797682526906 -2.1281504326170984 -0.654295659323282 -2.114541787748516 -0.6170955574333865 C -2.262541686786417 -0.5723141689558033 -2.439972046180248 -0.43486214690946784 -2.439972046180248 -0.43486214690946784 C -2.4143081496945045 -0.4109675499895643 -2.3901819074090267 -0.38547300061227596 -2.3677379242826535 -0.3585313049303277 C -2.4208069303964663 -0.32844160226242486 -2.511923635658426 -0.2653426952593109 -2.629080412243312 -0.13881526009709655 C -2.629080412243312 -0.13881526009709655 -2.294891648809655 0.32985893497901775 -2.2696991747449795 1.010714977037245 C -2.2696991747449795 1.010714977037245 -1.6729907049364272 0.5988768870005028 -0.8913176778829262 1.0358603623653515 L -0.9081283568382335 1.1955382680724853 C -0.9081283568382335 1.1955382680724853 -1.1579341043393674 1.0821485904131583 -1.5277219526195567 1.0401454373931749 C -1.8974627121631769 0.9980481069000526 -2.6141532827507845 1.2174345305772971 -2.190213387415684 1.4023049103491074 C -2.15193024458469 1.4189743230947058 -2.09584755933043 1.4288158690377288 -2.0626029113123714 1.437621462776223 L -2.0635917747803303 1.3051137580696837 C -2.100838965406796 1.283217495564872 -2.131964620279227 1.2756832977137542 -2.0871361430650746 1.2452639738898648 C -1.8518337264273428 1.0855860681827307 -1.0594244674359987 1.1451062312065639 -0.8325038459076357 1.3047841369136972 C -0.8325038459076357 1.3047841369136972 -0.8745540876641889 1.1451062312065634 -0.8325038459076357 1.0021919157181676 C -0.8325038459076357 1.0021919157181676 -1.4712154687361714 0.514776403487397 -2.202409370187181 0.8594188664394797 C -2.202409370187181 0.8594188664394797 -2.199018981154178 0.33353185643143757 -2.491534212723838 -0.16170038606986792 C -2.491534212723838 -0.16170038606986792 -2.4536748685219694 -0.24306972286194323 -2.3332689691137887 -0.3151625785498294 C -2.0521963005305146 0.057168061505112444 -1.9929115811895293 0.6750664627699343 -1.9929115811895293 0.6750664627699343 C -2.034161314424401 -0.07279685142667447 -2.285238457812911 -0.42341958392308227 -2.285238457812911 -0.42341958392308227 C -2.225726257280576 -0.4724416017848459 -2.158046584964162 -0.5106010778859984 -2.0852996823388645 -0.5361500192704367 C -1.999551093045827 -0.2951969542443664 -1.83003164139567 0.20997101167310106 -1.7752674407653555 0.5851269759222122 C -1.7752674407653555 0.5851269759222122 -1.8045095461750074 -0.11404658466154594 -2.015937973372009 -0.6182256871110542 C -2.015937973372009 -0.6182256871110542 -1.844016996156808 -0.6640901165297354 -1.7007730595124255 -0.6469027276818724 L -1.5632739487295204 0.5450073723650084 L -1.6044765932278224 -0.6099380694748243 C -1.410376821088393 -0.591385107266446 -1.2767389867041858 -0.5093565281623978 -1.2767389867041858 -0.5093565281623978 C -1.3683736680684095 -0.050947677658432 -1.33979080497073 0.6022672760335057 -1.33979080497073 0.6022672760335057 C -1.3065461569526717 0.2038965646556371 -1.228331765510752 -0.2273420848477341 -1.1876941858512837 -0.43505050185574584 C -1.1378743025607656 -0.41240081956582203 -1.0307474268651802 -0.3581545950377719 -0.9959488505403287 -0.29736303612656284 C -0.9959488505403287 -0.29736303612656284 -1.1392398759212807 0.33296679159260356 -1.1277502241983255 0.5564499353513941 C -1.1277502241983255 0.5564499353513941 -1.0408244164910507 0.056744262875987106 -0.93511020289255 -0.21994915320632447 C -0.8543530196758782 -0.18289031752613738 -0.7896530956294017 -0.11399949592497649 -0.7896530956294017 -0.11399949592497649 C -0.7953979214908788 0.09804108484742813 -0.990204024678851 0.6596213571751424 -0.990204024678851 0.6596213571751424 C -0.8518573166376948 0.4358085922603656 -0.7713826658404399 0.1226684940732703 -0.7363015570961715 -0.04025853445715821 C -0.6463149815118798 -0.0018812141530254456 -0.5948469924414295 0.08659852186104244 -0.5948469924414295 0.08659852186104244 C -0.6120343812892926 0.23558728436690257 -0.7552783179336753 0.4819084653618946 -0.7552783179336753 0.4819084653618946 C -0.6400992682847073 0.3566524260870563 -0.5792606206369286 0.2377062775125296 -0.5485587643936225 0.16104581437740317 C -0.5019409151898295 0.20950012430740628 -0.47453527050638744 0.26421723620115123 -0.47453527050638744 0.26421723620115123 C -0.508910048202114 0.3903208727342402 -0.6005918183029069 0.4705129911120782 -0.7094138885149937 0.5965695389085979 C -0.7784930650624327 0.676479124867019 -0.8106075834028235 0.7632165776280158 -0.8248754705833785 0.8160501400589815 C -0.7814596554663105 0.7048736330184202 -0.6150480604297397 0.5789583514316092 -0.5604251260091333 0.5392625465035308 C -0.49737330774258925 0.4933981170848496 -0.3999938005168877 0.26996206206262885 -0.3999938005168877 0.26996206206262885 C -0.4410551788054815 0.1920302030401263 -0.5024118025555242 0.14362298184669253 -0.5341025222667897 0.12224469544414496 M -1.9508613394329757 1.3056317341719483 C -1.8237217506953582 1.4108750604047537 -1.6898955613648732 1.3271983755207735 -1.6898955613648732 1.3271983755207735 C -1.8216498462863009 1.1912061043080928 -1.9508613394329761 1.3056317341719483 -1.9508613394329761 1.3056317341719483 M -1.0656872693997403 1.3056317341719483 C -1.0656872693997403 1.3056317341719483 -1.1948987625464156 1.1912061043080928 -1.3266530474678428 1.3271983755207735 C -1.3266530474678428 1.3271983755207735 -1.1928268581373578 1.4108750604047537 -1.0656872693997403 1.3056317341719483 M -2.256843949661509 2.0861275428112123 C -2.256843949661509 2.0861275428112123 -2.2024564589237503 1.947639568560348 -2.004589587858762 1.9674168379195331 C -1.8319151908584492 1.9846513155039658 -1.5426019933755148 2.0356955059452906 -1.5013051714040737 1.7854659598150315 C -1.4599612606960632 2.0356955059452906 -1.1706480632131289 1.9846513155039658 -0.9980207549493856 1.9674168379195331 C -0.8001538838843971 1.947639568560348 -0.745719304410069 2.0861275428112123 -0.745719304410069 2.0861275428112123 C -0.7654965737692538 1.8289288636686687 -0.9188645887760765 1.705226752700624 -1.1760632679186198 1.7102181587769898 C -1.4093408688838636 1.7146915887510914 -1.4873198166429358 1.6667552549233522 -1.4999395980435586 1.6577142175020108 C -1.5000337755166975 1.6570078864534683 -1.4999866867801281 1.6564899103512036 -1.5000337755166975 1.6558306680392312 L -1.5013051714040737 1.6567253540340514 L -1.5025294785548804 1.6558306680392312 C -1.5026236560280193 1.656489910351204 -1.50257656729145 1.6570078864534683 -1.5026236560280193 1.6577142175020108 C -1.5152905261652114 1.6667552549233522 -1.5932694739242839 1.7146915887510914 -1.826499986152958 1.7102181587769898 C -2.083745754032071 1.705226752700624 -2.2370666803023243 1.8289288636686691 -2.2568439496615085 2.0861275428112123" fill="#ff6b00" transform="matrix(1,0,0,1,0,0)" fill-rule="nonzero"></path></g></g><g><path d=" M 0.966064453125 0.340576171875 Q 0.952880859375 0.357421875 0.933837890625 0.37353515625 Q 0.917724609375 0.387451171875 0.8939208984375 0.40283203125 Q 0.8701171875 0.418212890625 0.838623046875 0.4306640625 Q 0.848876953125 0.41748046875 0.8404541015625 0.4024658203125 Q 0.83203125 0.387451171875 0.803466796875 0.375 Q 0.77490234375 0.362548828125 0.7261962890625 0.3544921875 Q 0.677490234375 0.346435546875 0.607177734375 0.346435546875 Q 0.566162109375 0.346435546875 0.5189208984375 0.3548583984375 Q 0.4716796875 0.36328125 0.425537109375 0.3837890625 Q 0.37939453125 0.404296875 0.3365478515625 0.4383544921875 Q 0.293701171875 0.472412109375 0.2607421875 0.5233154296875 Q 0.227783203125 0.57421875 0.2083740234375 0.6441650390625 Q 0.18896484375 0.714111328125 0.18896484375 0.8056640625 Q 0.18896484375 0.897216796875 0.2113037109375 0.966796875 Q 0.233642578125 1.036376953125 0.2706298828125 1.0865478515625 Q 0.3076171875 1.13671875 0.355224609375 1.1700439453125 Q 0.40283203125 1.203369140625 0.45263671875 1.2235107421875 Q 0.50244140625 1.24365234375 0.5504150390625 1.251708984375 Q 0.598388671875 1.259765625 0.63720703125 1.259765625 Q 0.681884765625 1.259033203125 0.730224609375 1.253173828125 Q 0.77197265625 1.248046875 0.8221435546875 1.2381591796875 Q 0.872314453125 1.228271484375 0.920654296875 1.209228515625 Q 0.849609375 1.266357421875 0.788818359375 1.29638671875 Q 0.72802734375 1.326416015625 0.681884765625 1.341064453125 Q 0.62841796875 1.35791015625 0.583740234375 1.360107421875 Q 0.475341796875 1.360107421875 0.37939453125 1.3282470703125 Q 0.283447265625 1.29638671875 0.2113037109375 1.2359619140625 Q 0.13916015625 1.175537109375 0.097412109375 1.087646484375 Q 0.0556640625 0.999755859375 0.0556640625 0.8876953125 Q 0.0556640625 0.818115234375 0.06884765625 0.7584228515625 Q 0.08203125 0.69873046875 0.1036376953125 0.64892578125 Q 0.125244140625 0.59912109375 0.15234375 0.5592041015625 Q 0.179443359375 0.519287109375 0.2076416015625 0.4888916015625 Q 0.23583984375 0.45849609375 0.2625732421875 0.43798828125 Q 0.289306640625 0.41748046875 0.30908203125 0.406494140625 Q 0.328125 0.3955078125 0.3577880859375 0.381591796875 Q 0.387451171875 0.36767578125 0.4229736328125 0.3533935546875 Q 0.45849609375 0.339111328125 0.498046875 0.3251953125 Q 0.53759765625 0.311279296875 0.57861328125 0.30029296875 Q 0.61962890625 0.289306640625 0.6588134765625 0.28271484375 Q 0.697998046875 0.276123046875 0.733154296875 0.276123046875 Q 0.8115234375 0.276123046875 0.85986328125 0.283447265625 Q 0.908203125 0.290771484375 0.9334716796875 0.3013916015625 Q 0.958740234375 0.31201171875 0.9649658203125 0.322998046875 Q 0.97119140625 0.333984375 0.966064453125 0.340576171875 M 1.225341796875 0.0732421875 Q 1.226806640625 0.087158203125 1.226806640625 0.10986328125 Q 1.226806640625 0.132568359375 1.226806640625 0.163330078125 Q 1.226806640625 0.333251953125 1.2191162109375 0.4954833984375 Q 1.21142578125 0.65771484375 1.19970703125 0.81884765625 Q 1.226806640625 0.7763671875 1.2601318359375 0.732421875 Q 1.29345703125 0.6884765625 1.330810546875 0.6529541015625 Q 1.3681640625 0.617431640625 1.408447265625 0.5950927734375 Q 1.44873046875 0.57275390625 1.490478515625 0.57275390625 Q 1.52490234375 0.57275390625 1.547607421875 0.59033203125 Q 1.5703125 0.60791015625 1.58349609375 0.63427734375 Q 1.5966796875 0.66064453125 1.6021728515625 0.69140625 Q 1.607666015625 0.72216796875 1.607666015625 0.74853515625 Q 1.607666015625 0.80419921875 1.603271484375 0.8587646484375 Q 1.598876953125 0.913330078125 1.5941162109375 0.966796875 Q 1.58935546875 1.020263671875 1.5849609375 1.0733642578125 Q 1.58056640625 1.12646484375 1.58056640625 1.17919921875 Q 1.58056640625 1.19384765625 1.58203125 1.20849609375 Q 1.58349609375 1.22314453125 1.588623046875 1.2352294921875 Q 1.59375 1.247314453125 1.6029052734375 1.2550048828125 Q 1.612060546875 1.2626953125 1.62744140625 1.2626953125 Q 1.64794921875 1.2626953125 1.6695556640625 1.2454833984375 Q 1.691162109375 1.228271484375 1.7098388671875 1.2052001953125 Q 1.728515625 1.18212890625 1.7435302734375 1.1590576171875 Q 1.758544921875 1.135986328125 1.7666015625 1.12353515625 L 1.75048828125 1.19091796875 Q 1.71826171875 1.222412109375 1.6973876953125 1.2418212890625 Q 1.676513671875 1.26123046875 1.6640625 1.27294921875 Q 1.6494140625 1.2861328125 1.640625 1.292724609375 Q 1.6318359375 1.300048828125 1.61865234375 1.3125 Q 1.60546875 1.324951171875 1.5897216796875 1.336669921875 Q 1.573974609375 1.348388671875 1.5567626953125 1.3568115234375 Q 1.53955078125 1.365234375 1.52197265625 1.365234375 Q 1.50732421875 1.365234375 1.497802734375 1.36083984375 Q 1.48828125 1.3564453125 1.482421875 1.345458984375 Q 1.4765625 1.33447265625 1.4739990234375 1.3165283203125 Q 1.471435546875 1.298583984375 1.471435546875 1.270751953125 Q 1.471435546875 1.201904296875 1.4754638671875 1.1363525390625 Q 1.4794921875 1.07080078125 1.48388671875 1.007080078125 Q 1.48828125 0.943359375 1.4912109375 0.881103515625 Q 1.494140625 0.81884765625 1.491943359375 0.75732421875 Q 1.490478515625 0.73974609375 1.483154296875 0.7239990234375 Q 1.475830078125 0.708251953125 1.4630126953125 0.696533203125 Q 1.4501953125 0.684814453125 1.4326171875 0.6785888671875 Q 1.4150390625 0.67236328125 1.39453125 0.674560546875 Q 1.3740234375 0.6767578125 1.3546142578125 0.686279296875 Q 1.335205078125 0.69580078125 1.3165283203125 0.71484375 Q 1.2978515625 0.73388671875 1.2791748046875 0.763916015625 Q 1.260498046875 0.7939453125 1.241455078125 0.838623046875 Q 1.2333984375 0.8583984375 1.224609375 0.882568359375 Q 1.216552734375 0.90380859375 1.20703125 0.9320068359375 Q 1.197509765625 0.960205078125 1.18798828125 0.99462890625 L 1.169677734375 1.289794921875 L 1.052490234375 1.38134765625 Q 1.064208984375 1.239990234375 1.0755615234375 1.1048583984375 Q 1.0869140625 0.9697265625 1.095703125 0.8389892578125 Q 1.1044921875 0.708251953125 1.1099853515625 0.5804443359375 Q 1.115478515625 0.45263671875 1.115478515625 0.3251953125 Q 1.115478515625 0.27978515625 1.1136474609375 0.24169921875 Q 1.11181640625 0.20361328125 1.1085205078125 0.1746826171875 Q 1.105224609375 0.145751953125 1.10009765625 0.126708984375 Q 1.094970703125 0.107666015625 1.087646484375 0.100341796875 Q 1.07666015625 0.093017578125 1.06201171875 0.093017578125 Q 1.049560546875 0.093017578125 1.0308837890625 0.0999755859375 Q 1.01220703125 0.10693359375 0.986572265625 0.12890625 Q 1.001953125 0.11572265625 1.024658203125 0.09375 Q 1.04736328125 0.07177734375 1.072265625 0.0509033203125 Q 1.09716796875 0.030029296875 1.1220703125 0.0150146484375 Q 1.14697265625 0 1.166748046875 0 Q 1.18798828125 0 1.204833984375 0.016845703125 Q 1.2216796875 0.03369140625 1.225341796875 0.0732421875 M 2.2060546875 1.1337890625 Q 2.167236328125 1.177734375 2.1346435546875 1.2110595703125 Q 2.10205078125 1.244384765625 2.0771484375 1.26708984375 Q 2.0478515625 1.29345703125 2.0244140625 1.3125 Q 1.9599609375 1.36376953125 1.912353515625 1.36376953125 Q 1.88525390625 1.36376953125 1.8658447265625 1.3494873046875 Q 1.846435546875 1.335205078125 1.83251953125 1.3125 Q 1.818603515625 1.289794921875 1.809814453125 1.26123046875 Q 1.801025390625 1.232666015625 1.7962646484375 1.2037353515625 Q 1.79150390625 1.1748046875 1.7896728515625 1.1484375 Q 1.787841796875 1.1220703125 1.787841796875 1.103759765625 Q 1.787841796875 1.0546875 1.7991943359375 0.99755859375 Q 1.810546875 0.9404296875 1.8321533203125 0.8836669921875 Q 1.853759765625 0.826904296875 1.88525390625 0.7745361328125 Q 1.916748046875 0.72216796875 1.9573974609375 0.6815185546875 Q 1.998046875 0.640869140625 2.0467529296875 0.61669921875 Q 2.095458984375 0.592529296875 2.15185546875 0.592529296875 Q 2.167236328125 0.592529296875 2.177490234375 0.5980224609375 Q 2.187744140625 0.603515625 2.1943359375 0.613037109375 Q 2.200927734375 0.62255859375 2.2034912109375 0.63427734375 Q 2.2060546875 0.64599609375 2.2060546875 0.658447265625 Q 2.2060546875 0.690673828125 2.19140625 0.722900390625 Q 2.1767578125 0.755126953125 2.1522216796875 0.7862548828125 Q 2.127685546875 0.8173828125 2.09619140625 0.8470458984375 Q 2.064697265625 0.876708984375 2.0306396484375 0.9034423828125 Q 1.99658203125 0.93017578125 1.962890625 0.95361328125 Q 1.92919921875 0.97705078125 1.9013671875 0.99609375 L 1.9013671875 1.01220703125 Q 1.9013671875 1.030517578125 1.9031982421875 1.0565185546875 Q 1.905029296875 1.08251953125 1.9097900390625 1.1107177734375 Q 1.91455078125 1.138916015625 1.922607421875 1.166748046875 Q 1.9306640625 1.194580078125 1.943115234375 1.216552734375 Q 1.95556640625 1.238525390625 1.9727783203125 1.2520751953125 Q 1.989990234375 1.265625 2.0126953125 1.265625 Q 2.02294921875 1.265625 2.033935546875 1.2623291015625 Q 2.044921875 1.259033203125 2.055908203125 1.2509765625 Q 2.074951171875 1.235595703125 2.09912109375 1.20849609375 Q 2.11962890625 1.18505859375 2.146728515625 1.147705078125 Q 2.173828125 1.1103515625 2.2060546875 1.05322265625 L 2.2060546875 1.1337890625 M 2.06982421875 0.70166015625 Q 2.06103515625 0.69140625 2.047119140625 0.6884765625 Q 2.033203125 0.685546875 2.0174560546875 0.68994140625 Q 2.001708984375 0.6943359375 1.9866943359375 0.706787109375 Q 1.9716796875 0.71923828125 1.96142578125 0.73974609375 Q 1.94677734375 0.76904296875 1.92919921875 0.8236083984375 Q 1.91162109375 0.878173828125 1.904296875 0.94921875 Q 1.927734375 0.935302734375 1.95263671875 0.9169921875 Q 1.9775390625 0.898681640625 2.0006103515625 0.878173828125 Q 2.023681640625 0.857666015625 2.0423583984375 0.8353271484375 Q 2.06103515625 0.81298828125 2.0716552734375 0.7899169921875 Q 2.082275390625 0.766845703125 2.0830078125 0.7445068359375 Q 2.083740234375 0.72216796875 2.06982421875 0.70166015625 M 2.94873046875 0.025634765625 Q 2.964111328125 0.037353515625 2.95751953125 0.056396484375 Q 2.95458984375 0.064453125 2.946533203125 0.075439453125 Q 2.9384765625 0.08642578125 2.9227294921875 0.100341796875 Q 2.906982421875 0.1142578125 2.8824462890625 0.131103515625 Q 2.85791015625 0.14794921875 2.822021484375 0.167724609375 Q 2.8359375 0.147216796875 2.8319091796875 0.1329345703125 Q 2.827880859375 0.11865234375 2.8150634765625 0.1102294921875 Q 2.80224609375 0.101806640625 2.7843017578125 0.09814453125 Q 2.766357421875 0.094482421875 2.751708984375 0.094482421875 Q 2.718017578125 0.094482421875 2.6839599609375 0.1051025390625 Q 2.64990234375 0.11572265625 2.627197265625 0.134765625 Q 2.616943359375 0.144287109375 2.60595703125 0.1563720703125 Q 2.594970703125 0.16845703125 2.5843505859375 0.18896484375 Q 2.57373046875 0.20947265625 2.562744140625 0.2406005859375 Q 2.5517578125 0.271728515625 2.5411376953125 0.3189697265625 Q 2.530517578125 0.3662109375 2.5206298828125 0.4317626953125 Q 2.5107421875 0.497314453125 2.501220703125 0.586669921875 L 2.498291015625 0.610107421875 Q 2.539306640625 0.61376953125 2.5726318359375 0.6148681640625 Q 2.60595703125 0.615966796875 2.630126953125 0.61669921875 Q 2.65869140625 0.617431640625 2.681396484375 0.61669921875 Q 2.7099609375 0.615966796875 2.737060546875 0.6123046875 Q 2.760498046875 0.608642578125 2.7857666015625 0.6024169921875 Q 2.81103515625 0.59619140625 2.82861328125 0.583740234375 Q 2.79345703125 0.608642578125 2.76123046875 0.6302490234375 Q 2.72900390625 0.65185546875 2.6964111328125 0.6676025390625 Q 2.663818359375 0.683349609375 2.62939453125 0.6925048828125 Q 2.594970703125 0.70166015625 2.555419921875 0.70166015625 Q 2.53857421875 0.70166015625 2.5228271484375 0.700927734375 Q 2.507080078125 0.7001953125 2.490966796875 0.69873046875 Q 2.483642578125 0.78515625 2.478515625 0.876708984375 Q 2.473388671875 0.96826171875 2.4686279296875 1.058349609375 Q 2.4638671875 1.1484375 2.458740234375 1.2330322265625 Q 2.45361328125 1.317626953125 2.4466552734375 1.3890380859375 Q 2.439697265625 1.46044921875 2.4305419921875 1.515380859375 Q 2.42138671875 1.5703125 2.408203125 1.601806640625 Q 2.386962890625 1.65380859375 2.35107421875 1.699951171875 Q 2.315185546875 1.74609375 2.2738037109375 1.7845458984375 Q 2.232421875 1.822998046875 2.189208984375 1.8526611328125 Q 2.14599609375 1.88232421875 2.110107421875 1.900634765625 Q 2.077880859375 1.91748046875 2.04345703125 1.9248046875 Q 2.009033203125 1.93212890625 1.974609375 1.93212890625 Q 1.932861328125 1.93212890625 1.8973388671875 1.9229736328125 Q 1.86181640625 1.913818359375 1.84130859375 1.900634765625 Q 1.828857421875 1.893310546875 1.82958984375 1.8812255859375 Q 1.830322265625 1.869140625 1.839111328125 1.8548583984375 Q 1.847900390625 1.840576171875 1.862548828125 1.8255615234375 Q 1.877197265625 1.810546875 1.893310546875 1.796630859375 Q 1.909423828125 1.78271484375 1.9248046875 1.771728515625 Q 1.940185546875 1.7607421875 1.94970703125 1.7548828125 Q 1.9453125 1.7724609375 1.9486083984375 1.78564453125 Q 1.951904296875 1.798828125 1.9661865234375 1.8087158203125 Q 1.98046875 1.818603515625 2.0072021484375 1.825927734375 Q 2.033935546875 1.833251953125 2.07568359375 1.839111328125 Q 2.15771484375 1.8515625 2.2177734375 1.801025390625 Q 2.27783203125 1.75048828125 2.304931640625 1.63623046875 Q 2.316650390625 1.588623046875 2.32470703125 1.5238037109375 Q 2.332763671875 1.458984375 2.33935546875 1.383544921875 Q 2.345947265625 1.30810546875 2.3507080078125 1.224609375 Q 2.35546875 1.14111328125 2.35986328125 1.0546875 Q 2.3642578125 0.96826171875 2.369384765625 0.8822021484375 Q 2.37451171875 0.796142578125 2.381103515625 0.715576171875 Q 2.381103515625 0.709716796875 2.3818359375 0.7049560546875 Q 2.382568359375 0.7001953125 2.382568359375 0.6943359375 Q 2.35986328125 0.69580078125 2.3375244140625 0.7005615234375 Q 2.315185546875 0.705322265625 2.293212890625 0.717041015625 Q 2.307861328125 0.705322265625 2.321044921875 0.692138671875 Q 2.334228515625 0.678955078125 2.344482421875 0.66796875 Q 2.356201171875 0.65478515625 2.366455078125 0.64306640625 Q 2.3701171875 0.638671875 2.37451171875 0.632080078125 Q 2.378173828125 0.626220703125 2.3829345703125 0.618896484375 Q 2.3876953125 0.611572265625 2.3935546875 0.601318359375 Q 2.40673828125 0.487060546875 2.4254150390625 0.4075927734375 Q 2.444091796875 0.328125 2.4700927734375 0.2720947265625 Q 2.49609375 0.216064453125 2.5301513671875 0.177978515625 Q 2.564208984375 0.139892578125 2.609619140625 0.107666015625 Q 2.682861328125 0.05712890625 2.74658203125 0.0322265625 Q 2.810302734375 0.00732421875 2.864501953125 0.00732421875 Q 2.911376953125 0.00732421875 2.94873046875 0.025634765625 M 3.3515625 1.26123046875 L 3.22998046875 1.3681640625 Q 3.243896484375 1.21728515625 3.251953125 1.115478515625 Q 3.260009765625 1.013671875 3.264404296875 0.9521484375 Q 3.26953125 0.879638671875 3.27099609375 0.838623046875 Q 3.27392578125 0.791015625 3.26806640625 0.7613525390625 Q 3.26220703125 0.731689453125 3.2501220703125 0.7152099609375 Q 3.238037109375 0.69873046875 3.2222900390625 0.69287109375 Q 3.20654296875 0.68701171875 3.191162109375 0.68701171875 Q 3.175048828125 0.68701171875 3.1622314453125 0.69287109375 Q 3.1494140625 0.69873046875 3.1376953125 0.7108154296875 Q 3.1259765625 0.722900390625 3.1142578125 0.7408447265625 Q 3.1025390625 0.7587890625 3.08935546875 0.782958984375 Q 3.078369140625 0.80419921875 3.065185546875 0.837890625 Q 3.05419921875 0.866455078125 3.03955078125 0.9111328125 Q 3.02490234375 0.955810546875 3.008056640625 1.020263671875 L 3.008056640625 1.033447265625 Q 3.006591796875 1.068603515625 3.003662109375 1.108154296875 Q 3.00146484375 1.141845703125 2.99853515625 1.184326171875 Q 2.99560546875 1.226806640625 2.991943359375 1.270751953125 L 2.876220703125 1.37255859375 Q 2.88427734375 1.194580078125 2.8905029296875 1.0784912109375 Q 2.896728515625 0.96240234375 2.900390625 0.89501953125 Q 2.90478515625 0.81591796875 2.90771484375 0.774169921875 Q 2.909912109375 0.72509765625 2.89453125 0.70458984375 Q 2.879150390625 0.68408203125 2.8564453125 0.68408203125 Q 2.8388671875 0.68408203125 2.8187255859375 0.695068359375 Q 2.798583984375 0.7060546875 2.7802734375 0.722900390625 Q 2.798583984375 0.702392578125 2.8209228515625 0.678955078125 Q 2.84326171875 0.655517578125 2.8681640625 0.6357421875 Q 2.89306640625 0.615966796875 2.9190673828125 0.602783203125 Q 2.945068359375 0.589599609375 2.970703125 0.589599609375 Q 2.98681640625 0.589599609375 2.9981689453125 0.5980224609375 Q 3.009521484375 0.6064453125 3.015380859375 0.62548828125 Q 3.0205078125 0.638671875 3.02197265625 0.664306640625 Q 3.0234375 0.68994140625 3.0234375 0.722900390625 Q 3.0234375 0.744140625 3.022705078125 0.768310546875 Q 3.02197265625 0.79248046875 3.0205078125 0.8173828125 Q 3.035888671875 0.791748046875 3.050537109375 0.7705078125 Q 3.065185546875 0.749267578125 3.076904296875 0.734619140625 Q 3.090087890625 0.717041015625 3.1025390625 0.703125 Q 3.132568359375 0.671630859375 3.1651611328125 0.6456298828125 Q 3.19775390625 0.61962890625 3.2288818359375 0.6038818359375 Q 3.260009765625 0.588134765625 3.287841796875 0.58447265625 Q 3.315673828125 0.580810546875 3.3369140625 0.593994140625 Q 3.3515625 0.602783203125 3.36181640625 0.614501953125 Q 3.3720703125 0.626220703125 3.3782958984375 0.642333984375 Q 3.384521484375 0.658447265625 3.387451171875 0.6807861328125 Q 3.390380859375 0.703125 3.390380859375 0.733154296875 Q 3.390380859375 0.755859375 3.390380859375 0.7781982421875 Q 3.390380859375 0.800537109375 3.388916015625 0.8232421875 Q 3.40576171875 0.799072265625 3.4207763671875 0.778564453125 Q 3.435791015625 0.758056640625 3.4482421875 0.74267578125 Q 3.462158203125 0.724365234375 3.474609375 0.709716796875 Q 3.50244140625 0.67822265625 3.5321044921875 0.654052734375 Q 3.561767578125 0.6298828125 3.5899658203125 0.614501953125 Q 3.6181640625 0.59912109375 3.642333984375 0.5928955078125 Q 3.66650390625 0.586669921875 3.683349609375 0.591064453125 Q 3.7177734375 0.599853515625 3.7298583984375 0.6419677734375 Q 3.741943359375 0.68408203125 3.741943359375 0.755859375 Q 3.741943359375 0.810791015625 3.73828125 0.863525390625 Q 3.734619140625 0.916259765625 3.7305908203125 0.9671630859375 Q 3.7265625 1.01806640625 3.722900390625 1.0682373046875 Q 3.71923828125 1.118408203125 3.71923828125 1.168212890625 Q 3.71923828125 1.20263671875 3.7247314453125 1.2227783203125 Q 3.730224609375 1.242919921875 3.746337890625 1.24658203125 Q 3.762451171875 1.248046875 3.7822265625 1.23779296875 Q 3.799072265625 1.22900390625 3.822509765625 1.2073974609375 Q 3.845947265625 1.185791015625 3.873779296875 1.142578125 L 3.867919921875 1.18798828125 Q 3.84814453125 1.2099609375 3.8221435546875 1.24072265625 Q 3.796142578125 1.271484375 3.7679443359375 1.2989501953125 Q 3.73974609375 1.326416015625 3.7108154296875 1.3447265625 Q 3.681884765625 1.363037109375 3.65625 1.360107421875 Q 3.62841796875 1.3564453125 3.61083984375 1.3282470703125 Q 3.59326171875 1.300048828125 3.59326171875 1.2392578125 Q 3.59326171875 1.177734375 3.5980224609375 1.1173095703125 Q 3.602783203125 1.056884765625 3.6075439453125 0.9971923828125 Q 3.6123046875 0.9375 3.615966796875 0.8778076171875 Q 3.61962890625 0.818115234375 3.617431640625 0.7587890625 Q 3.615966796875 0.7236328125 3.5994873046875 0.708251953125 Q 3.5830078125 0.69287109375 3.561767578125 0.69287109375 Q 3.533935546875 0.69287109375 3.510498046875 0.714111328125 Q 3.49951171875 0.72509765625 3.484130859375 0.7459716796875 Q 3.46875 0.766845703125 3.4515380859375 0.800537109375 Q 3.434326171875 0.834228515625 3.4156494140625 0.8814697265625 Q 3.39697265625 0.9287109375 3.378662109375 0.99169921875 Q 3.372802734375 1.060546875 3.3651123046875 1.1275634765625 Q 3.357421875 1.194580078125 3.3515625 1.26123046875 M 4.623779296875 1.156494140625 Q 4.6171875 1.166748046875 4.60546875 1.1810302734375 Q 4.59375 1.1953125 4.58203125 1.209228515625 Q 4.56884765625 1.225341796875 4.553466796875 1.2421875 Q 4.534423828125 1.265625 4.512451171875 1.28759765625 Q 4.490478515625 1.3095703125 4.4688720703125 1.3267822265625 Q 4.447265625 1.343994140625 4.4267578125 1.354248046875 Q 4.40625 1.364501953125 4.39013671875 1.36376953125 Q 4.359375 1.3623046875 4.34765625 1.3260498046875 Q 4.3359375 1.289794921875 4.3359375 1.220947265625 Q 4.3359375 1.184326171875 4.338134765625 1.141845703125 Q 4.34033203125 1.099365234375 4.3447265625 1.046630859375 Q 4.32861328125 1.072265625 4.31396484375 1.093505859375 Q 4.29931640625 1.11474609375 4.28759765625 1.130859375 Q 4.2744140625 1.14990234375 4.26123046875 1.165283203125 Q 4.222412109375 1.212890625 4.1861572265625 1.24951171875 Q 4.14990234375 1.2861328125 4.1195068359375 1.31103515625 Q 4.089111328125 1.3359375 4.0660400390625 1.34912109375 Q 4.04296875 1.3623046875 4.02978515625 1.36376953125 Q 4.0166015625 1.365234375 3.9979248046875 1.35498046875 Q 3.979248046875 1.3447265625 3.96240234375 1.3154296875 Q 3.945556640625 1.2861328125 3.9334716796875 1.2333984375 Q 3.92138671875 1.1806640625 3.922119140625 1.096435546875 Q 3.9228515625 1.01220703125 3.9400634765625 0.9481201171875 Q 3.957275390625 0.884033203125 3.9847412109375 0.8360595703125 Q 4.01220703125 0.7880859375 4.0458984375 0.7532958984375 Q 4.07958984375 0.718505859375 4.112548828125 0.69287109375 Q 4.1806640625 0.640869140625 4.2432861328125 0.6097412109375 Q 4.305908203125 0.57861328125 4.365966796875 0.5771484375 Q 4.3857421875 0.576416015625 4.40478515625 0.577880859375 Q 4.421630859375 0.579345703125 4.4410400390625 0.5826416015625 Q 4.46044921875 0.5859375 4.47802734375 0.592529296875 L 4.499267578125 0.57568359375 Q 4.494873046875 0.59619140625 4.4901123046875 0.63134765625 Q 4.4853515625 0.66650390625 4.48095703125 0.71044921875 Q 4.4765625 0.75439453125 4.47216796875 0.80419921875 Q 4.4677734375 0.85400390625 4.4644775390625 0.9041748046875 Q 4.461181640625 0.954345703125 4.458251953125 1.0015869140625 Q 4.455322265625 1.048828125 4.4534912109375 1.087646484375 Q 4.45166015625 1.12646484375 4.4512939453125 1.153564453125 Q 4.450927734375 1.1806640625 4.45166015625 1.19091796875 Q 4.455322265625 1.232666015625 4.4710693359375 1.248046875 Q 4.48681640625 1.263427734375 4.5146484375 1.2451171875 Q 4.525634765625 1.236328125 4.541748046875 1.21728515625 Q 4.5556640625 1.201171875 4.5758056640625 1.1729736328125 Q 4.595947265625 1.144775390625 4.623779296875 1.099365234375 L 4.623779296875 1.156494140625 M 4.373291015625 0.68994140625 Q 4.3037109375 0.68115234375 4.259033203125 0.68115234375 Q 4.21142578125 0.68115234375 4.17626953125 0.696533203125 Q 4.14111328125 0.7119140625 4.1162109375 0.7379150390625 Q 4.09130859375 0.763916015625 4.0751953125 0.7979736328125 Q 4.05908203125 0.83203125 4.0499267578125 0.8701171875 Q 4.040771484375 0.908203125 4.0374755859375 0.94775390625 Q 4.0341796875 0.9873046875 4.0341796875 1.023193359375 Q 4.0341796875 1.03564453125 4.03564453125 1.056884765625 Q 4.037109375 1.078125 4.0411376953125 1.102294921875 Q 4.045166015625 1.12646484375 4.0513916015625 1.1513671875 Q 4.0576171875 1.17626953125 4.0675048828125 1.1964111328125 Q 4.077392578125 1.216552734375 4.090576171875 1.2293701171875 Q 4.103759765625 1.2421875 4.121337890625 1.2421875 Q 4.140380859375 1.2421875 4.1678466796875 1.2213134765625 Q 4.1953125 1.200439453125 4.234130859375 1.150634765625 Q 4.2568359375 1.119873046875 4.279541015625 1.07666015625 Q 4.298583984375 1.0400390625 4.3201904296875 0.986572265625 Q 4.341796875 0.93310546875 4.358642578125 0.862060546875 L 4.373291015625 0.68994140625 M 5.101318359375 1.103759765625 L 5.0859375 1.17919921875 Q 5.069091796875 1.193115234375 5.0467529296875 1.2139892578125 Q 5.0244140625 1.23486328125 4.9984130859375 1.257568359375 Q 4.972412109375 1.2802734375 4.944580078125 1.3018798828125 Q 4.916748046875 1.323486328125 4.888916015625 1.3385009765625 Q 4.861083984375 1.353515625 4.8343505859375 1.3597412109375 Q 4.8076171875 1.365966796875 4.784912109375 1.357177734375 Q 4.770263671875 1.35205078125 4.7596435546875 1.341796875 Q 4.7490234375 1.33154296875 4.7420654296875 1.3125 Q 4.735107421875 1.29345703125 4.7314453125 1.2637939453125 Q 4.727783203125 1.234130859375 4.727783203125 1.19091796875 Q 4.727783203125 1.060546875 4.7332763671875 0.9378662109375 Q 4.73876953125 0.815185546875 4.746826171875 0.6943359375 Q 4.716064453125 0.696533203125 4.6864013671875 0.7020263671875 Q 4.65673828125 0.70751953125 4.640625 0.719970703125 Q 4.686767578125 0.678955078125 4.713134765625 0.6441650390625 Q 4.739501953125 0.609375 4.75341796875 0.582275390625 L 4.76220703125 0.4482421875 L 4.88818359375 0.343505859375 L 4.872802734375 0.605712890625 Q 4.888916015625 0.607177734375 4.90283203125 0.607177734375 Q 4.916748046875 0.607177734375 4.929931640625 0.607177734375 Q 4.99365234375 0.607177734375 5.0482177734375 0.5958251953125 Q 5.102783203125 0.58447265625 5.1533203125 0.5654296875 Q 5.1064453125 0.602783203125 5.0635986328125 0.626220703125 Q 5.020751953125 0.649658203125 4.984130859375 0.6639404296875 Q 4.947509765625 0.67822265625 4.91748046875 0.6844482421875 Q 4.887451171875 0.690673828125 4.866943359375 0.69287109375 Q 4.859619140625 0.82470703125 4.8555908203125 0.9063720703125 Q 4.8515625 0.988037109375 4.849365234375 1.03271484375 Q 4.846435546875 1.08544921875 4.846435546875 1.109619140625 Q 4.84423828125 1.1455078125 4.850830078125 1.17333984375 Q 4.857421875 1.201171875 4.8709716796875 1.219482421875 Q 4.884521484375 1.23779296875 4.9039306640625 1.2451171875 Q 4.92333984375 1.25244140625 4.94677734375 1.24658203125 Q 4.965087890625 1.24072265625 4.9892578125 1.22314453125 Q 5.009765625 1.20849609375 5.0379638671875 1.1802978515625 Q 5.066162109375 1.152099609375 5.101318359375 1.103759765625 M 4.640625 0.719970703125 L 4.63623046875 0.722900390625 L 4.640625 0.719970703125 M 5.57373046875 1.1337890625 Q 5.534912109375 1.177734375 5.5023193359375 1.2110595703125 Q 5.4697265625 1.244384765625 5.44482421875 1.26708984375 Q 5.41552734375 1.29345703125 5.39208984375 1.3125 Q 5.32763671875 1.36376953125 5.280029296875 1.36376953125 Q 5.2529296875 1.36376953125 5.2335205078125 1.3494873046875 Q 5.214111328125 1.335205078125 5.2001953125 1.3125 Q 5.186279296875 1.289794921875 5.177490234375 1.26123046875 Q 5.168701171875 1.232666015625 5.1639404296875 1.2037353515625 Q 5.1591796875 1.1748046875 5.1573486328125 1.1484375 Q 5.155517578125 1.1220703125 5.155517578125 1.103759765625 Q 5.155517578125 1.0546875 5.1668701171875 0.99755859375 Q 5.17822265625 0.9404296875 5.1998291015625 0.8836669921875 Q 5.221435546875 0.826904296875 5.2529296875 0.7745361328125 Q 5.284423828125 0.72216796875 5.3250732421875 0.6815185546875 Q 5.36572265625 0.640869140625 5.4144287109375 0.61669921875 Q 5.463134765625 0.592529296875 5.51953125 0.592529296875 Q 5.534912109375 0.592529296875 5.545166015625 0.5980224609375 Q 5.555419921875 0.603515625 5.56201171875 0.613037109375 Q 5.568603515625 0.62255859375 5.5711669921875 0.63427734375 Q 5.57373046875 0.64599609375 5.57373046875 0.658447265625 Q 5.57373046875 0.690673828125 5.55908203125 0.722900390625 Q 5.54443359375 0.755126953125 5.5198974609375 0.7862548828125 Q 5.495361328125 0.8173828125 5.4638671875 0.8470458984375 Q 5.432373046875 0.876708984375 5.3983154296875 0.9034423828125 Q 5.3642578125 0.93017578125 5.33056640625 0.95361328125 Q 5.296875 0.97705078125 5.26904296875 0.99609375 L 5.26904296875 1.01220703125 Q 5.26904296875 1.030517578125 5.2708740234375 1.0565185546875 Q 5.272705078125 1.08251953125 5.2774658203125 1.1107177734375 Q 5.2822265625 1.138916015625 5.290283203125 1.166748046875 Q 5.29833984375 1.194580078125 5.310791015625 1.216552734375 Q 5.3232421875 1.238525390625 5.3404541015625 1.2520751953125 Q 5.357666015625 1.265625 5.38037109375 1.265625 Q 5.390625 1.265625 5.401611328125 1.2623291015625 Q 5.41259765625 1.259033203125 5.423583984375 1.2509765625 Q 5.442626953125 1.235595703125 5.466796875 1.20849609375 Q 5.4873046875 1.18505859375 5.514404296875 1.147705078125 Q 5.54150390625 1.1103515625 5.57373046875 1.05322265625 L 5.57373046875 1.1337890625 M 5.4375 0.70166015625 Q 5.4287109375 0.69140625 5.414794921875 0.6884765625 Q 5.40087890625 0.685546875 5.3851318359375 0.68994140625 Q 5.369384765625 0.6943359375 5.3543701171875 0.706787109375 Q 5.33935546875 0.71923828125 5.3291015625 0.73974609375 Q 5.314453125 0.76904296875 5.296875 0.8236083984375 Q 5.279296875 0.878173828125 5.27197265625 0.94921875 Q 5.29541015625 0.935302734375 5.3203125 0.9169921875 Q 5.34521484375 0.898681640625 5.3682861328125 0.878173828125 Q 5.391357421875 0.857666015625 5.4100341796875 0.8353271484375 Q 5.4287109375 0.81298828125 5.4393310546875 0.7899169921875 Q 5.449951171875 0.766845703125 5.45068359375 0.7445068359375 Q 5.451416015625 0.72216796875 5.4375 0.70166015625 M 6.27978515625 1.270751953125 Q 6.240966796875 1.292724609375 6.2054443359375 1.307373046875 Q 6.169921875 1.322021484375 6.13916015625 1.330810546875 Q 6.1083984375 1.339599609375 6.0838623046875 1.34326171875 Q 6.059326171875 1.346923828125 6.041748046875 1.346923828125 L 5.931884765625 1.346923828125 L 6.01171875 1.30224609375 Q 6.024169921875 1.2861328125 6.035888671875 1.27001953125 Q 6.047607421875 1.25390625 6.0556640625 1.239990234375 Q 6.065185546875 1.224609375 6.0732421875 1.209228515625 Q 6.095947265625 1.1630859375 6.140625 1.059814453125 Q 6.158935546875 1.015869140625 6.1842041015625 0.955078125 Q 6.20947265625 0.894287109375 6.242431640625 0.813720703125 Q 6.275390625 0.733154296875 6.315673828125 0.630615234375 Q 6.35595703125 0.528076171875 6.40576171875 0.400634765625 L 6.533203125 0.283447265625 L 6.8203125 1.2568359375 Q 6.85107421875 1.264892578125 6.8792724609375 1.26708984375 Q 6.907470703125 1.269287109375 6.932373046875 1.269287109375 Q 6.945556640625 1.269287109375 6.95654296875 1.2689208984375 Q 6.967529296875 1.2685546875 6.9755859375 1.267822265625 Q 6.984375 1.26708984375 6.992431640625 1.265625 Q 6.949951171875 1.2861328125 6.91845703125 1.3011474609375 Q 6.886962890625 1.316162109375 6.8624267578125 1.326416015625 Q 6.837890625 1.336669921875 6.8170166015625 1.341796875 Q 6.796142578125 1.346923828125 6.77490234375 1.346923828125 L 6.65771484375 1.346923828125 L 6.69580078125 1.32275390625 L 6.57861328125 0.9345703125 Q 6.557373046875 0.9404296875 6.529541015625 0.9459228515625 Q 6.501708984375 0.951416015625 6.4632568359375 0.955810546875 Q 6.4248046875 0.960205078125 6.3739013671875 0.9638671875 Q 6.322998046875 0.967529296875 6.25634765625 0.970458984375 Q 6.2255859375 1.03564453125 6.199951171875 1.086181640625 Q 6.17431640625 1.13671875 6.15380859375 1.174072265625 Q 6.13330078125 1.21142578125 6.1175537109375 1.237060546875 Q 6.101806640625 1.2626953125 6.0908203125 1.278076171875 Q 6.103271484375 1.2802734375 6.11865234375 1.2813720703125 Q 6.134033203125 1.282470703125 6.1494140625 1.282470703125 Q 6.1728515625 1.282470703125 6.1959228515625 1.2806396484375 Q 6.218994140625 1.27880859375 6.238037109375 1.276611328125 Q 6.260009765625 1.273681640625 6.27978515625 1.270751953125 M 6.38232421875 0.88330078125 Q 6.481201171875 0.88330078125 6.561767578125 0.87890625 L 6.44970703125 0.5068359375 Q 6.404296875 0.623291015625 6.3665771484375 0.71484375 Q 6.328857421875 0.806396484375 6.295166015625 0.88330078125 L 6.38232421875 0.88330078125 M 7.39013671875 1.25244140625 Q 7.3505859375 1.27880859375 7.324951171875 1.2978515625 Q 7.29931640625 1.31689453125 7.2784423828125 1.3289794921875 Q 7.257568359375 1.341064453125 7.2381591796875 1.346923828125 Q 7.21875 1.352783203125 7.1923828125 1.352783203125 Q 7.1572265625 1.352783203125 7.13232421875 1.349853515625 Q 7.107421875 1.346923828125 7.08251953125 1.346923828125 Q 7.070068359375 1.346923828125 7.0572509765625 1.3480224609375 Q 7.04443359375 1.34912109375 7.029052734375 1.352783203125 Q 7.049560546875 1.335205078125 7.06640625 1.314697265625 Q 7.083251953125 1.294189453125 7.0953369140625 1.26416015625 Q 7.107421875 1.234130859375 7.114013671875 1.1920166015625 Q 7.12060546875 1.14990234375 7.12060546875 1.090576171875 L 7.12060546875 0.350830078125 Q 7.097900390625 0.35302734375 7.065673828125 0.356689453125 Q 7.033447265625 0.3603515625 6.992431640625 0.3662109375 Q 7.031982421875 0.333984375 7.0638427734375 0.317138671875 Q 7.095703125 0.30029296875 7.118408203125 0.292236328125 Q 7.144775390625 0.283447265625 7.165283203125 0.281982421875 Q 7.19091796875 0.28271484375 7.2220458984375 0.28125 Q 7.253173828125 0.27978515625 7.2821044921875 0.2772216796875 Q 7.31103515625 0.274658203125 7.335205078125 0.2706298828125 Q 7.359375 0.2666015625 7.37109375 0.26220703125 Q 7.336669921875 0.284912109375 7.3092041015625 0.3006591796875 Q 7.28173828125 0.31640625 7.2568359375 0.32666015625 Q 7.253173828125 0.459228515625 7.2506103515625 0.56396484375 Q 7.248046875 0.668701171875 7.2462158203125 0.7496337890625 Q 7.244384765625 0.83056640625 7.2432861328125 0.8895263671875 Q 7.2421875 0.948486328125 7.241455078125 0.990234375 Q 7.2392578125 1.087646484375 7.239990234375 1.12353515625 Q 7.2392578125 1.150634765625 7.232666015625 1.177001953125 Q 7.226806640625 1.200439453125 7.215087890625 1.2264404296875 Q 7.203369140625 1.25244140625 7.181396484375 1.273681640625 Q 7.1953125 1.275146484375 7.20849609375 1.275146484375 Q 7.2216796875 1.275146484375 7.234130859375 1.275146484375 Q 7.271484375 1.275146484375 7.3004150390625 1.2718505859375 Q 7.329345703125 1.2685546875 7.34912109375 1.26416015625 Q 7.37255859375 1.259033203125 7.39013671875 1.25244140625" fill="#000000" fill-rule="nonzero"></path></g><g></g></g><defs><clipPath id="SvgjsClipPath145804"><path d=" M -2.629080412243312 -0.7392037146862125 h 2.229080412243312 v 2.825331257497425 h -2.229080412243312 Z"></path></clipPath><clipPath id="bed33a598-7084-4c5d-8ce5-c31a8462709dfa26f5c7-96ee-4c52-97d4-046a517465e8"><path d=" M -2.6761691488128 -0.7862853879275568 L -0.35290506394740007 -0.7862853879275568 L -0.35290506394740007 2.133216279380701 L -2.6761691488128 2.133216279380701 Z"></path></clipPath></defs></svg>